<svg xmlns="http://www.w3.org/2000/svg" width="255" height="196" viewBox="0 0 255 196">
    <g fill="none" fill-rule="evenodd">
        <path fill="#FFF" d="M0 0h255v196H0z"/>
        <path fill="#FFD300" fill-rule="nonzero" d="M139.335 41.4c-14.27-.491-27.862-5.069-40.84-10.076-12.979-5.006-25.833-10.552-39.77-13.207-8.96-1.706-19.206-1.947-26.423 2.826-6.948 4.6-9.192 12.515-10.398 19.87-.909 5.532-1.442 11.356 1.045 16.536 1.729 3.596 4.796 6.619 6.915 10.062 7.38 11.987 2.163 26.765-5.833 38.47-3.748 5.488-8.103 10.732-10.998 16.569-2.895 5.837-4.224 12.539-1.691 18.511 2.51 5.914 8.491 10.347 14.972 13.468 13.16 6.341 28.664 8.155 43.792 9.184 33.478 2.273 67.132 1.29 100.698.302 12.422-.366 24.898-.733 37.118-2.643 6.787-1.058 13.792-2.74 18.72-6.79 6.253-5.154 7.803-13.88 3.611-20.343-7.029-10.84-26.459-13.531-31.378-25.164-2.703-6.404.073-13.536 4.004-19.473 8.432-12.74 22.563-23.918 23.309-38.478.509-10.001-6.285-20.017-16.789-24.75-11.01-4.959-26.278-4.335-34.397 3.874-8.368 8.433-23.066 11.687-35.667 11.252z"/>
        <ellipse cx="125.381" cy="176.095" fill="#F8765E" fill-rule="nonzero" opacity=".1" rx="78.095" ry="7.143"/>
        <ellipse cx="121.095" cy="126.095" fill="#FFF" fill-rule="nonzero" rx="53.81" ry="53.333"/>
        <path fill="#FD826C" fill-rule="nonzero" d="M104.15 101.51C101.158 94.566 95.376 91 87.263 91c-8.102 0-13.93 3.552-17.042 10.474a2.5 2.5 0 0 0 4.56 2.05C77.064 98.448 81.079 97 87.263 97c6.172 0 10.117 1.433 12.296 6.488a2.5 2.5 0 0 0 4.591-1.978zM171.627 101.51C168.635 94.566 162.852 91 154.739 91c-8.102 0-13.929 3.552-17.042 10.474a2.5 2.5 0 1 0 4.56 2.05C144.54 98.448 148.555 97 154.739 97c6.172 0 10.118 1.433 12.296 6.488a2.5 2.5 0 0 0 4.592-1.978zM84.739 135.474c3.625 16.085 16.134 26.199 36.738 26.199 20.554 0 33.54-10.05 38.286-26.037a2.5 2.5 0 0 0-4.793-1.423c-4.06 13.678-15 20.46-33.493 20.46-18.442 0-28.8-6.719-31.86-20.298a2.5 2.5 0 1 0-4.878 1.1z"/>
        <path fill="#FD826C" fill-rule="nonzero" d="M133.919 155.21c-8.453-1.913-13.409-7.33-14.96-16.375-1.672-9.742-7.506-13.967-17.22-12.466l-.063.01-.062.021c-9.242 3.128-9.242 12.274-.402 26.912l.114.188.197.097c5.836 2.88 11.402 4.326 16.696 4.326 5.211 0 10.429-.414 15.652-1.241l3.856-.61-3.808-.862zm-15.7 1.213c-4.99 0-10.268-1.355-15.836-4.075-8.284-13.788-8.27-21.785-.35-24.506 8.863-1.348 13.918 2.331 15.447 11.246 1.438 8.382 5.712 13.939 12.763 16.59-4.012.497-8.02.745-12.024.745z"/>
        <path fill="#FD826C" fill-rule="nonzero" d="M112.559 154.623c-3.252-3.57-4.88-8.203-4.88-13.935a.75.75 0 1 0-1.5 0c0 6.09 1.756 11.085 5.27 14.945a.75.75 0 0 0 1.11-1.01z"/>
        <path fill="#000" fill-rule="nonzero" d="M93.952 86.095S77.63 96.216 77.762 112.04c.134 15.823 16.19-25.945 16.19-25.945z" opacity=".05"/>
    </g>
</svg>
