<svg xmlns="http://www.w3.org/2000/svg" width="255" height="196" viewBox="0 0 255 196">
    <g fill="none" fill-rule="evenodd">
        <path fill="#FFF" d="M0 0h255v196H0z"/>
        <ellipse cx="112.15" cy="186.4" fill="#F8765E" fill-rule="nonzero" opacity=".1" rx="43.45" ry="7.7"/>
        <path fill="#F8765E" fill-rule="nonzero" d="M100.6 142.4c24.908 0 45.1-20.192 45.1-45.1s-20.192-45.1-45.1-45.1-45.1 20.192-45.1 45.1 20.192 45.1 45.1 45.1zm0-11c-18.833 0-34.1-15.267-34.1-34.1 0-18.833 15.267-34.1 34.1-34.1 18.833 0 34.1 15.267 34.1 34.1 0 18.833-15.267 34.1-34.1 34.1z"/>
        <path fill="#F8765E" fill-rule="nonzero" d="M144.6 119.3c24.908 0 45.1-20.192 45.1-45.1s-20.192-45.1-45.1-45.1-45.1 20.192-45.1 45.1 20.192 45.1 45.1 45.1zm0-11c-18.833 0-34.1-15.267-34.1-34.1 0-18.833 15.267-34.1 34.1-34.1 18.833 0 34.1 15.267 34.1 34.1 0 18.833-15.267 34.1-34.1 34.1zM94.55 137.45v41.8a5.5 5.5 0 0 0 11 0v-41.8a5.5 5.5 0 0 0-11 0z"/>
        <path fill="#F8765E" fill-rule="nonzero" d="M191.024 5.72l-26.4 30.8a5.5 5.5 0 1 0 8.352 7.16l26.4-30.8a5.5 5.5 0 1 0-8.352-7.16zM87.95 168.25h24.2a5.5 5.5 0 0 0 0-11h-24.2a5.5 5.5 0 0 0 0 11z"/>
        <path fill="#F8765E" fill-rule="nonzero" d="M194.1 11.5v19.8a5.5 5.5 0 0 0 11 0V6a5.5 5.5 0 0 0-5.5-5.5h-26.4a5.5 5.5 0 0 0 0 11h20.9z"/>
    </g>
</svg>
