<svg xmlns="http://www.w3.org/2000/svg" width="255" height="196" viewBox="0 0 255 196">
    <g fill="none" fill-rule="evenodd">
        <path fill="#FFF" d="M0 0h255v196H0z"/>
        <path fill="#F8765E" fill-rule="nonzero" d="M225.541 175.077c0 1.228-9.09 2.351-24.118 3.219-2.733.155-5.661.304-8.767.443a1013.637 1013.637 0 0 1-17.316.617c-9.69.274-20.404.47-31.785.569a1891.444 1891.444 0 0 1-17.36.075c-54.866 0-99.343-2.202-99.343-4.918 0-2.717 44.477-4.918 99.344-4.918 23.622 0 45.314.41 62.364 1.089l1.864.075h.011c21.477.9 35.106 2.253 35.106 3.749z" opacity=".1"/>
        <path fill="#D42C2C" stroke="#861A1A" stroke-linecap="round" stroke-linejoin="round" stroke-width="4" d="M65.835 67.744c-7.083-.384-12.264.118-15.543 1.507-3.555-4.814-3.555-10.468 0-16.963 1.25 2.088 4.154 2.088 8.71 0 6.833-3.13 8.86-1.05 8.86-7.51 4.83-4.631 5.432-10.167 1.803-16.607-3.628-6.44-7.837-8.389-12.626-5.847-2.697-1.765-4.946-1.765-6.747 0-7.876-1.083-13.6 1.213-17.173 6.889-5.36 8.512.734 10.757-2.83 21.482C26.728 61.42 8.435 85.26 27.644 110.32c6.035-1.599 10.906-1.599 14.613 0 5.56 2.399 9.912 4.68 16.746 4.68l6.833-47.256z"/>
        <path stroke="#861A1A" stroke-linecap="round" stroke-linejoin="round" stroke-width="3" d="M51 70c-3.813 1.644-6.813 4.644-9 9M56 100.956c-5.955.343-10.288-1.309-13-4.956M36 39.999c6.722.055 9.678-1.945 8.87-5.999"/>
        <path stroke="#861A1A" stroke-linecap="round" stroke-linejoin="round" stroke-width="3" d="M40 40.007c2.415 6.216 5.96 8.288 10.638 6.216 4.676-2.072 5.593-6.146 2.749-12.223"/>
        <path fill="#D42C2C" stroke="#861A1A" stroke-linecap="round" stroke-linejoin="round" stroke-width="4" d="M51 53c-2-1.962-3-3.962-3-6M121.638 175C86.792 155.598 53.94 127.38 56.1 94.796c2.162-32.585 33.361-53.668 62.973-29.91 36.091-22.954 61.045-17.45 74.861 16.51 3.632 8.925 8.197 40.74-41.26 67.172-12.496 5.4-22.842 14.211-31.037 26.432z"/>
        <path fill="#D42C2C" stroke="#861A1A" stroke-linecap="round" stroke-linejoin="round" stroke-width="4" d="M170.576 80.851c5.314-13.382 13.956-18.91 25.925-16.583 3.033-4.811 3.033-10.777 0-17.895-1.719 1.075-4.12 1.075-7.202 0-4.623-1.613-4.598 3.868-10.711 1.127-4.076-1.827-5.17-4.019-3.285-6.576-6.303-3.013-7.879-8.512-4.727-16.497 3.151-7.984 7.021-10.35 11.61-7.097 1.73-3.417 4.1-4.272 7.113-2.563 6.36-3.022 12.606-2.168 18.737 2.563 9.196 7.097 1.935 7.608 5.565 15.6 3.63 7.994 5.797 12.17 12.73 18.323 6.933 6.154 16.728 31.778 2 50.52-5.424-.961-9.77-.432-13.037 1.59-4.901 3.031-17.363 10.263-36.706 6.647"/>
        <path stroke="#861A1A" stroke-linecap="round" stroke-width="3" d="M196.46 64c-1.318 5.001.195 9.668 4.54 14M196.485 46c3.508-2.793 3.346-5.46-.485-8M207 28.226c-5.753 1.69-9.086.614-10-3.226"/>
        <path stroke="#861A1A" stroke-linecap="round" stroke-width="3" d="M202 29.12c-.03 6.587-3.177 9.88-9.44 9.88-3.707-.772-5.56-4.772-5.56-12"/>
        <path stroke="#861A1A" stroke-linecap="round" stroke-width="3" d="M191 38.414c-3.1 2.864-6.403 3.349-9.907 1.456-3.504-1.893-4.03-6.183-1.58-12.87M181 40c-1.997.889-3.997 1.185-6 .889M208 46c6.634 3.794 10.634 11.461 12 23M205 90c-6.748 7-15.748 8.75-27 5.25M183 110c.012 3.324-1.654 6.324-5 9"/>
        <path stroke="#861A1A" stroke-linecap="round" stroke-linejoin="round" stroke-width="3" d="M119 65c-2.68 3-4.346 6-5 9M53 44.725c4.478 1.975 7.446 1.655 8.905-.96 1.46-2.616 1.46-5.87 0-9.765M62 44c2.188 2.208 4.188 2.588 6 1.14"/>
    </g>
</svg>
