<svg xmlns="http://www.w3.org/2000/svg" width="190" height="145" viewBox="0 0 190 145">
    <path fill="#FFF" fill-rule="evenodd" d="M50.171 15.59c27.81-21.837 84.61-21.837 116.105 7.039 20.998 19.251 25.848 48.137 14.553 86.66 6.464 11.371 9.511 23.275 9.14 35.711h-29.898c0-9.606-1.292-19.253-3.877-28.941 14.254-14.042 22.465-26.475 24.635-37.298 9.14-41.485-21.07-54.627-33.515-52.323-20.772 3.845-27.824 19.733-21.158 47.664 16.519-5.602 27.824-1.18 33.915 13.27 6.16 14.61-6.209 26.511-37.108 35.701V145H92.418c0-5.952.875-12.287 2.626-19.005-19.505 1.87-34.463-1.442-44.873-9.936-4.482 6.965-6.157 16.612-5.024 28.941H15.724c0-12.954 3.439-27.073 10.316-42.355C16.097 98.215 7.417 88.7 0 74.102c7.764 5.61 15.014 5.61 21.752 0 .406-24.45 9.879-43.953 28.42-58.512zm98.185 23.018a5.262 5.262 0 0 1 5.256 5.267 5.262 5.262 0 0 1-5.256 5.267 5.262 5.262 0 0 1-5.257-5.267 5.262 5.262 0 0 1 5.257-5.267z"/>
</svg>
